HIERARCHY
ROOT Hips
{
	OFFSET 0.000000 0.000000 0.000000
	CHANNELS 6 Xposition Yposition Zposition Yrotation Xrotation Zrotation
	JOINT Chest
	{
		OFFSET 0.000000 -0.009281 11.569106
		CHANNELS 3 Yrotation Xrotation Zrotation
		JOINT Chest2
		{
			OFFSET -0.000000 0.016865 9.269641
			CHANNELS 3 Yrotation Xrotation Zrotation
			JOINT Chest3
			{
				OFFSET -0.000000 0.000001 8.374491
				CHANNELS 3 Yrotation Xrotation Zrotation
				JOINT Chest4
				{
					OFFSET -0.000000 0.000001 8.374493
					CHANNELS 3 Yrotation Xrotation Zrotation
					JOINT Neck
					{
						OFFSET -0.000000 0.000002 12.152554
						CHANNELS 3 Yrotation Xrotation Zrotation
						JOINT Head
						{
							OFFSET -0.000000 0.040101 7.802319
							CHANNELS 3 Yrotation Xrotation Zrotation
							End Site
							{
								OFFSET -0.000000 0.020947 14.853096
							}
						}
					}
					JOINT RightCollar
					{
						OFFSET 2.894404 0.000001 6.791374
						CHANNELS 3 Yrotation Xrotation Zrotation
						JOINT RightShoulder
						{
							OFFSET 13.574684 0.000001 0.000000
							CHANNELS 3 Yrotation Xrotation Zrotation
							JOINT RightElbow
							{
								OFFSET 23.923903 0.000002 0.000000
								CHANNELS 3 Yrotation Xrotation Zrotation
								JOINT RightWrist
								{
									OFFSET 19.846718 0.012767 0.000000
									CHANNELS 3 Yrotation Xrotation Zrotation
									End Site
									{
										OFFSET 14.973145 0.000001 0.000000
									}
								}
							}
						}
					}
					JOINT LeftCollar
					{
						OFFSET -2.894404 0.000001 6.791374
						CHANNELS 3 Yrotation Xrotation Zrotation
						JOINT LeftShoulder
						{
							OFFSET -13.574684 -0.000001 0.000000
							CHANNELS 3 Yrotation Xrotation Zrotation
							JOINT LeftElbow
							{
								OFFSET -23.923903 -0.000002 0.000000
								CHANNELS 3 Yrotation Xrotation Zrotation
								JOINT LeftWrist
								{
									OFFSET -19.846718 0.012763 0.000000
									CHANNELS 3 Yrotation Xrotation Zrotation
									End Site
									{
										OFFSET -14.973145 -0.000001 0.000000
									}
								}
							}
						}
					}
				}
			}
		}
	}
	JOINT RightHip
	{
		OFFSET 9.469263 0.004643 0.045487
		CHANNELS 3 Yrotation Xrotation Zrotation
		JOINT RightKnee
		{
			OFFSET 0.000000 0.002661 -40.478676
			CHANNELS 3 Yrotation Xrotation Zrotation
			JOINT RightAnkle
			{
				OFFSET 0.000000 0.049106 -35.224068
				CHANNELS 3 Yrotation Xrotation Zrotation
				JOINT RightToe
				{
					OFFSET -0.000001 12.539529 -6.151390
					CHANNELS 3 Yrotation Xrotation Zrotation
					End Site
					{
						OFFSET -0.000001 5.044994 -1.291870
					}
				}
			}
		}
	}
	JOINT LeftHip
	{
		OFFSET -9.469263 0.004641 0.045487
		CHANNELS 3 Yrotation Xrotation Zrotation
		JOINT LeftKnee
		{
			OFFSET 0.000000 0.002661 -40.478676
			CHANNELS 3 Yrotation Xrotation Zrotation
			JOINT LeftAnkle
			{
				OFFSET 0.000000 0.049106 -35.224068
				CHANNELS 3 Yrotation Xrotation Zrotation
				JOINT LeftToe
				{
					OFFSET -0.000001 12.539529 -6.151390
					CHANNELS 3 Yrotation Xrotation Zrotation
					End Site
					{
						OFFSET -0.000001 5.044994 -1.291870
					}
				}
			}
		}
	}
}
MOTION
Frames: 11
Frame Time: 0.016667
10.314196 2.282441 82.931641 -6.878553 -3.508265 -115.093086 -7.065869 1.145438 3.565538 -3.151575 0.458212 1.618453 -3.151574 0.458211 1.618448 -2.364902 0.335327 1.216233 -1.167443 -23.043810 9.669814 0.429743 -6.947097 17.108178 -5.153310 14.185188 -13.859753 21.753637 18.897977 47.388737 -30.137093 -23.278029 26.749188 -59.438553 7.937885 38.798750 -4.473394 -18.542669 -15.795521 -52.446335 -20.952515 -66.515702 6.288060 -36.848420 -59.612723 71.106559 -1.435102 -60.788923 1.684088 -10.689943 -3.350446 0.742461 -2.379345 0.322163 1.848812 5.553858 5.210820 -0.067857 -0.035787 -0.007565 2.319959 -12.009731 3.303705 0.581607 -0.619785 -0.170618 -1.671823 5.120242 3.684101 -0.009822 0.007675 0.002954 
10.304361 2.292289 82.934013 -6.869092 -3.503220 -115.101036 -7.065108 1.139183 3.567396 -3.151475 0.454929 1.618302 -3.151472 0.454929 1.618296 -2.364818 0.332866 1.216102 -1.151266 -23.043636 9.649954 0.453726 -6.947175 17.076690 -5.161683 14.185630 -13.873625 21.759618 18.913740 47.396305 -30.112398 -23.255128 26.745996 -59.355532 7.836672 38.767887 -4.464676 -18.515046 -15.804829 -52.436008 -20.926649 -66.513373 6.274908 -36.826853 -59.689583 71.062224 -1.585570 -60.760058 1.675666 -10.665264 -3.315391 0.741230 -2.388417 0.305691 1.863490 5.543799 5.230017 -0.061333 -0.032423 -0.006285 2.314873 -11.997820 3.305780 0.585069 -0.601157 -0.156686 -1.676660 5.098924 3.675510 -0.004977 0.008319 0.001507 
10.294759 2.305612 82.936333 -6.859938 -3.502876 -115.110421 -7.065522 1.137624 3.575843 -3.151123 0.454257 1.621459 -3.151123 0.454257 1.621461 -2.364554 0.332346 1.218471 -1.131492 -23.051318 9.625063 0.481963 -6.961824 17.036747 -5.171081 14.143516 -13.908391 21.790122 18.958095 47.424339 -30.095767 -23.255648 26.750467 -59.271337 7.723462 38.741591 -4.452262 -18.490989 -15.823463 -52.443173 -20.903533 -66.499118 6.217485 -36.820624 -59.751151 71.006647 -1.736231 -60.720873 1.672124 -10.643817 -3.295180 0.743762 -2.389359 0.294752 1.876259 5.528818 5.212670 -0.058174 -0.030499 -0.007857 2.309226 -11.989744 3.302772 0.586261 -0.579671 -0.143665 -1.676448 5.077696 3.658263 0.000731 0.008048 0.002917 
10.285129 2.322047 82.938377 -6.853343 -3.504636 -115.117251 -7.060530 1.144079 3.582219 -3.148471 0.457227 1.624311 -3.148472 0.457228 1.624310 -2.362580 0.334568 1.220622 -1.115303 -23.067741 9.602303 0.503304 -6.992327 16.999303 -5.168880 14.116207 -13.911574 21.793465 18.989483 47.422574 -30.079504 -23.269063 26.750537 -59.198199 7.630783 38.732787 -4.442811 -18.498903 -15.838768 -52.442278 -20.866578 -66.494774 6.157284 -36.816103 -59.815628 70.966922 -1.827472 -60.685391 1.662518 -10.627729 -3.282298 0.748459 -2.387261 0.280119 1.894278 5.512645 5.209703 -0.055118 -0.029304 -0.008167 2.309960 -11.981411 3.291758 0.578061 -0.562124 -0.127961 -1.670669 5.058848 3.638924 0.004799 0.006019 0.003080 
10.273547 2.338118 82.940102 -6.844020 -3.506895 -115.126172 -7.051222 1.149581 3.586492 -3.144453 0.460082 1.626641 -3.144455 0.460084 1.626638 -2.359571 0.336706 1.222377 -1.103955 -23.083452 9.584460 0.517294 -7.021302 16.969465 -5.167289 14.114811 -13.903830 21.779195 18.993079 47.414582 -30.055332 -23.279072 26.720803 -59.154848 7.604523 38.730977 -4.432378 -18.509543 -15.851132 -52.421589 -20.843786 -66.500600 6.121142 -36.785398 -59.887263 70.920354 -1.867447 -60.680855 1.660299 -10.613025 -3.276473 0.744347 -2.373768 0.276270 1.915329 5.489207 5.224815 -0.053114 -0.029219 -0.008420 2.304600 -11.969028 3.284724 0.574776 -0.548619 -0.110295 -1.663093 5.043209 3.665643 0.008637 0.003219 0.004756 
10.262275 2.358720 82.941895 -6.836709 -3.509248 -115.136075 -7.044870 1.143377 3.592268 -3.141001 0.457669 1.629405 -3.140999 0.457668 1.629404 -2.356977 0.334892 1.224435 -1.095022 -23.088399 9.568897 0.528798 -7.030272 16.943582 -5.172529 14.092063 -13.919185 21.785296 19.015334 47.429704 -30.035344 -23.267622 26.686512 -59.099974 7.586555 38.704100 -4.419018 -18.497930 -15.871777 -52.374430 -20.832700 -66.519923 6.116178 -36.734250 -59.965188 70.889379 -1.931034 -60.683717 1.655677 -10.598627 -3.276799 0.736433 -2.360744 0.279690 1.938288 5.465887 5.235119 -0.049055 -0.030081 -0.008056 2.301058 -11.957604 3.289755 0.570213 -0.532776 -0.103506 -1.656454 5.023392 3.665631 0.011163 0.001638 0.003760 
10.251157 2.383328 82.944023 -6.829233 -3.508215 -115.146102 -7.036571 1.134757 3.594786 -3.137005 0.453980 1.630156 -3.137007 0.453979 1.630157 -2.353972 0.332131 1.224980 -1.091346 -23.090824 9.560435 0.532970 -7.034516 16.929203 -5.172399 14.065527 -13.917612 21.794599 19.056180 47.444625 -30.015475 -23.241995 26.663399 -59.004870 7.529795 38.642690 -4.407945 -18.485374 -15.889715 -52.327507 -20.812425 -66.543678 6.092302 -36.680407 -60.036359 70.817423 -2.071234 -60.671867 1.640805 -10.579087 -3.277732 0.736886 -2.353842 0.280757 1.958555 5.444465 5.256474 -0.044585 -0.030778 -0.008170 2.289447 -11.945296 3.307445 0.567947 -0.512978 -0.101637 -1.651326 4.999828 3.630713 0.015932 0.001191 0.003478 
10.239475 2.410519 82.946571 -6.822358 -3.504770 -115.158000 -7.028378 1.124750 3.598580 -3.133701 0.449400 1.631427 -3.133703 0.449401 1.631426 -2.351482 0.328698 1.225906 -1.086686 -23.093754 9.551435 0.538711 -7.039766 16.914096 -5.174351 14.054263 -13.926210 21.811900 19.088408 47.465081 -29.988581 -23.213171 26.648176 -58.857700 7.455423 38.562886 -4.392145 -18.474864 -15.915031 -52.287174 -20.782978 -66.567071 6.032456 -36.628020 -60.077326 70.745453 -2.186108 -60.674606 1.622742 -10.555560 -3.262103 0.733152 -2.351176 0.269727 1.980395 5.422905 5.296222 -0.038450 -0.030799 -0.007719 2.274207 -11.930599 3.331926 0.562005 -0.495564 -0.096725 -1.645594 4.974957 3.616734 0.022388 0.002118 0.003313 
10.228212 2.440641 82.949158 -6.810339 -3.500045 -115.172262 -7.018518 1.114404 3.602230 -3.129423 0.444814 1.632633 -3.129422 0.444814 1.632631 -2.348263 0.325263 1.226783 -1.085829 -23.100045 9.543774 0.537588 -7.050838 16.900239 -5.181507 14.035030 -13.943156 21.839279 19.124468 47.495592 -29.965782 -23.195201 26.635096 -58.697389 7.389356 38.479688 -4.374464 -18.449710 -15.944481 -52.245674 -20.755966 -66.582733 5.984211 -36.568218 -60.108199 70.715148 -2.189648 -60.696585 1.612138 -10.522834 -3.228022 0.722773 -2.352267 0.237684 2.001504 5.405260 5.283259 -0.032318 -0.032022 -0.007999 2.259382 -11.907891 3.358906 0.551372 -0.484285 -0.088123 -1.637063 4.954136 3.615165 0.029150 0.002238 0.003415 
10.215532 2.469284 82.951233 -6.793612 -3.495048 -115.187807 -7.003684 1.109221 3.605702 -3.123393 0.442706 1.633742 -3.123394 0.442705 1.633740 -2.343737 0.323694 1.227600 -1.086551 -23.113618 9.533324 0.532087 -7.074958 16.880635 -5.193981 14.039997 -13.960283 21.838876 19.126616 47.507685 -29.935701 -23.194199 26.602182 -58.615304 7.372053 38.426316 -4.353741 -18.434961 -15.969474 -52.203208 -20.730256 -66.598279 5.990234 -36.509089 -60.168516 70.678798 -2.147256 -60.701647 1.599256 -10.487603 -3.198841 0.711702 -2.351396 0.210706 2.026805 5.385865 5.301806 -0.027088 -0.032840 -0.006990 2.248653 -11.883493 3.387937 0.536190 -0.467416 -0.085374 -1.629135 4.930990 3.634298 0.036946 0.001817 0.003524 
10.204096 2.501477 82.953323 -6.776748 -3.492047 -115.203817 -6.989064 1.102751 3.615213 -3.116618 0.439643 1.637222 -3.116616 0.439640 1.637217 -2.338649 0.321395 1.230188 -1.081960 -23.129797 9.517319 0.534410 -7.104092 16.852314 -5.199917 14.032313 -13.981404 21.825227 19.128997 47.522650 -29.918076 -23.197541 26.540158 -58.648703 7.439633 38.437576 -4.323225 -18.413183 -15.999998 -52.171877 -20.697785 -66.609214 6.002641 -36.470997 -60.244406 70.652897 -2.171501 -60.713415 1.585532 -10.451985 -3.180065 0.707500 -2.349521 0.197944 2.049741 5.363993 5.308044 -0.025172 -0.033176 -0.007533 2.236185 -11.861156 3.411070 0.528999 -0.446431 -0.073769 -1.625890 4.906439 3.622435 0.043056 0.000482 0.003529 
